<svg width="920" height="720" viewBox="0 0 920 720" fill="none" xmlns="http://www.w3.org/2000/svg">
  <rect width="920" height="720" rx="36" fill="#FFF9F1"/>
  <circle cx="170" cy="156" r="88" fill="#E4F3ED"/>
  <circle cx="752" cy="128" r="64" fill="#F4DACC"/>
  <rect x="152" y="162" width="282" height="390" rx="28" fill="#FFFDF8" stroke="#D7CDC0" stroke-width="8"/>
  <path d="M350 162V250C350 267.673 364.327 282 382 282H434" stroke="#D7CDC0" stroke-width="8"/>
  <rect x="196" y="250" width="188" height="18" rx="9" fill="#E0F0EA"/>
  <rect x="196" y="290" width="162" height="18" rx="9" fill="#F2E6DB"/>
  <rect x="196" y="330" width="140" height="18" rx="9" fill="#E0F0EA"/>
  <rect x="196" y="386" width="180" height="32" rx="16" fill="#0B6B5E"/>
  <rect x="502" y="210" width="254" height="132" rx="26" fill="#FFFDF8" stroke="#D7CDC0" stroke-width="8"/>
  <circle cx="560" cy="276" r="26" fill="#0B6B5E"/>
  <path d="M618 276H706" stroke="#1F2F2A" stroke-width="16" stroke-linecap="round"/>
  <path d="M462 378L536 332" stroke="#C46D43" stroke-width="12" stroke-linecap="round"/>
  <path d="M424 416C424 351.935 475.935 300 540 300H612C676.065 300 728 351.935 728 416V438H424V416Z" fill="#E7DDD0"/>
  <circle cx="552" cy="428" r="58" fill="#0B6B5E"/>
  <circle cx="656" cy="428" r="58" fill="#C46D43"/>
  <rect x="420" y="500" width="320" height="30" rx="15" fill="#D7CDC0"/>
  <rect x="484" y="556" width="190" height="22" rx="11" fill="#EFE5D8"/>
</svg>
